# xmcd
# 
# Track frame offsets:
#     150
#     15532
#     29895
#     40080
#     54835
#     68372
#     82102
#     96947
#     107542
#     120722
#     135377
#     150282
#     164200
#     178587
#     193082
#     206665
#     220662
#     235375
#     288852
#     329787
# 
# Disc length: 4684
# 
# Revision: 6
# Processed by: cddbd v1.5.2PL0 Copyright (c) Steve Scherf et al.
# Submitted via: fre:ac v1.0.31
# 
DISCID=1b124a14
DTITLE=Sony Music - Jazz: The Definitive Performances Disc 1
DYEAR=0
DGENRE=Jazz
TTITLE0=(Back Home Again in) Indiana
TTITLE1=St. Louis Blues
TTITLE2=Dippermouth Blues (Aka Sugar Foot Stomp)
TTITLE3=The Stampede
TTITLE4=Wild Cat Blues
TTITLE5=Singin' the Blues
TTITLE6=West End Blues
TTITLE7=Tiger Rag
TTITLE8=God Bless the Child
TTITLE9=Lester Leaps In
TTITLE10=Flying Home
TTITLE11=I can't get Started
TTITLE12=It Don't Mean a Thing if it ain't got That Swing
TTITLE13=9:20 Special
TTITLE14=Let Me off Uptown
TTITLE15=T'Ain't What Cha Do It's the Way How'cha Do It
TTITLE16=Four Brothers
TTITLE17=Nica's Dream
TTITLE18=So What
TTITLE19=Goodbye Pork Pie Hat
EXTD=
EXTT0=
EXTT1=St. Louis Blues
EXTT2=
EXTT3=
EXTT4=
EXTT5=
EXTT6=
EXTT7=
EXTT8=
EXTT9=
EXTT10=
EXTT11=
EXTT12=
EXTT13=
EXTT14=
EXTT15=
EXTT16=
EXTT17=
EXTT18=
EXTT19=
PLAYORDER=
